<?xml version="1.0" encoding="UTF-8"?>
<svg id="Capa_2" data-name="Capa 2" xmlns="http://www.w3.org/2000/svg" viewBox="0 0 571.59 680.34">
  <defs>
    <style>
      .cls-1 {
        fill: #dcddd8;
      }
    </style>
  </defs>
  <g id="Capa_1-2" data-name="Capa 1">
    <path class="cls-1" d="M134.68,679.19c-43.05,8.05-102.32-27.64-122.54-64.33-4.77-8.66-7.13-20.43-11.68-29.5-6.89-75.43,65.86-135.85,121.3-175.89,48.65-35.14,117.08-77.05,171.14-102.78,5.94-2.83,11.15-.23,17.22-5.41,3.2-2.73,37.3-44.75,37.89-47.74,1.57-7.97-21.87-10.13-15.01-25.72L508.27,6.29l15.87-6.29c17.23,1.02,26.96,4.36,40.26,15.55l7.19,18.15c-.59,12.39-2.85,22.12-11.25,31.79l-170.78,212.97c-10.24,3.08-19.81-14.55-23.98-13.26l-41.36,51.47c2.08,23.27-7.53,48.26-13.9,71.06-7.21,25.8-15.94,54.25-24.76,79.51-25.24,72.27-58.49,153.24-121.4,200.28l-29.48,11.67ZM146.52,625.1l-38.94,31.97c15.35,3.88,33.67-2.25,47.1-9.64,51.72-28.45,97.87-146.45,115.66-201.83,1.08-3.37,8.3-23.54,6.02-24.63-38.12,70.98-74.92,144.18-129.84,204.13ZM68.69,638.38c28.82,10.54,61.05-24.86,78.36-45.01,49.24-57.31,85.37-136,119.93-202.78l-198.29,247.79ZM167.7,446.29c-35.23,32.78-114.91,108.91-119.69,156.84-.41,4.11-1.38,25.97,6.83,19.93l189.97-242.06c-27.09,19.88-52.54,42.43-77.11,65.29ZM204.33,381.3c-26.66,13.02-64.64,40.8-88.59,59.41-43.07,33.48-111.2,91.49-88.56,152.44,34.79-88.17,115.34-152.67,185.9-212.76-.98-4.12-6.32-.28-8.74.91Z"/>
  </g>
</svg>