<?xml version="1.0" encoding="UTF-8"?>
<svg id="Capa_2" data-name="Capa 2" xmlns="http://www.w3.org/2000/svg" viewBox="0 0 3620.41 1057.5">
  <defs>
    <style>
      .cls-1 {
        fill: #fff;
        stroke: #1e1e1c;
        stroke-miterlimit: 10;
      }
    </style>
  </defs>
  <g id="Capa_1-2" data-name="Capa 1">
    <g>
      <g>
        <path class="cls-1" d="M407.46,446.51c29.3-.19,52.83,4.91,70.6,15.31,17.76,10.4,30.19,24.08,37.27,41.02,16.12,38.63,12.76,73.8-10.08,105.55-22.85,31.75-62.64,59.48-119.4,83.16-11.43,4.78-21.16,8.62-29.21,11.5-27.14,10.41-53.5,20.95-79.11,31.65-46.11,19.25-80.16,34.15-102.13,44.7l-4.94-11.82c12.29-6.04,20.79-11.45,25.52-16.2,4.72-4.74,6.67-10.89,5.85-18.42-.82-7.51-4.36-18.76-10.62-33.74l-122.4-293.23c-6.26-14.97-11.86-25.35-16.82-31.15-4.96-5.8-10.71-8.72-17.21-8.78-6.5-.06-16.22,2.15-29.16,6.62l-4.94-11.82c22.95-8.19,57.09-21.75,102.42-40.68l67.74-28.97c7.72-3.68,16.7-7.66,26.94-11.94,52.03-21.72,95.22-29.92,129.61-24.61,34.38,5.32,57.5,22.16,69.34,50.54,6.09,14.59,7.09,31.41,3.03,50.46-4.09,19.06-14.07,38.38-29.96,57.96-15.89,19.59-37.87,37.33-65.94,53.22l.49,1.18c39.45-14.14,73.81-21.31,103.13-21.53ZM180.84,304.41c-3.39,4.66-4.39,10.85-3,18.59,1.38,7.76,5.04,18.72,10.96,32.92l55.77,133.6,15.97-6.66c21.27-8.89,32.5-23.87,33.65-44.95,1.15-21.07-4.36-46.19-16.53-75.35-12.5-29.96-25.01-50.76-37.52-62.44-12.5-11.67-26.06-14.47-40.64-8.37-9.07,3.78-15.29,8.01-18.66,12.66ZM390.19,552.3c-13-31.14-30.35-51.65-52.08-61.57-21.74-9.9-48.76-8.1-81.06,5.37l-8.28,3.46,62.44,149.56c5.92,14.18,11.27,24.22,16.04,30.1,4.76,5.89,10.35,8.99,16.74,9.32,6.39.35,15.09-1.78,26.14-6.4,42.16-17.59,48.86-60.89,20.07-129.85Z"/>
        <path class="cls-1" d="M1019.1,487.34c-9.57,15.38-21.26,27.31-35.07,35.79-13.81,8.48-30.7,15.04-50.67,19.68-28.7,6.69-52.14,6.77-70.31.27-18.2-6.5-32.01-21.6-41.46-45.27l-23.89-60.22c-10.94-28.14-21.8-48.86-32.56-62.13-10.77-13.29-23.43-18.22-37.98-14.84l-28.08,6.54,33.42,143.5c3.69,15.81,7.49,26.98,11.43,33.52,3.94,6.54,9.1,10.37,15.5,11.52,6.41,1.14,16.36.58,29.87-1.69l2.91,12.48c-24.42,4.37-59.3,11.84-104.63,22.39-50.33,11.72-87.2,20.97-110.62,27.74l-2.91-12.48c13.12-3.92,22.39-7.85,27.85-11.75,5.44-3.9,8.39-9.62,8.82-17.18.42-7.55-1.19-19.24-4.87-35.05l-72.07-309.47c-3.68-15.8-7.49-26.97-11.43-33.51-3.94-6.54-9.1-10.37-15.5-11.52-6.41-1.14-16.36-.56-29.87,1.69l-2.9-12.48c23.99-4.28,59.91-11.98,107.75-23.12l71.61-17.34c8.22-2.35,17.72-4.78,28.55-7.31,63.22-14.72,112.41-16.74,147.56-6.08,35.15,10.67,57,34.32,65.52,70.9,7.27,31.2,1.82,60.54-16.34,88.01-18.16,27.47-54.1,50.09-107.85,67.86,43.1-6.96,76.99-6.42,101.68,1.64,24.67,8.07,42.47,24.21,53.36,48.42l28.23,61.84c6.49,14.71,12.49,24.49,18,29.34,5.51,4.86,12.03,6.41,19.51,4.67,7.49-1.74,13.31-5.94,17.45-12.62l10,6.23ZM661.11,149.08c-4.1,4.03-6.13,9.98-6.04,17.85.08,7.87,1.87,19.3,5.35,34.27l35.75,153.49,16.84-3.92c29.53-6.87,47.6-20.62,54.21-41.23,6.59-20.62,6.08-47.35-1.58-80.21-7.94-34.1-18.63-58.81-32.06-74.1-13.43-15.29-30.75-20.47-51.96-15.53-9.57,2.23-16.4,5.37-20.51,9.39Z"/>
        <path class="cls-1" d="M1420.61,445.93c7.35,5.81,14.23,8.54,20.65,8.19l1.51,12.73c-30.69,2.35-69.36,6.28-116,11.81-48.35,5.73-83.91,10.59-106.66,14.58l-1.5-12.72c16-2.76,27.23-6.13,33.64-10.12,6.4-3.99,9.13-10,8.17-18.07-.9-7.63-4.66-17.5-11.25-29.62l-49.9-99.89-128.51,15.23-7.43,29.91c-9.72,37.71-13.45,66.11-11.18,85.19,2.05,17.4,8.34,28.69,18.85,33.89,10.5,5.21,25.35,7.1,44.54,5.68l1.51,12.73c-31.96,2.49-59.82,5.16-83.56,7.96-19.94,2.36-36.19,4.94-48.77,7.72l-1.5-12.72c10.4-2.95,19.58-10.71,27.56-23.28,7.96-12.55,15.35-31.92,22.15-58.1l98.17-379.98c13.67-.76,24.96-1.67,33.87-2.72,8.48-1.01,19.45-2.73,32.92-5.19l201.01,378.71c7.12,12.91,14.35,22.28,21.71,28.06ZM1193.31,310.64l-76.75-152.18-42.22,166.29,118.97-14.11Z"/>
        <path class="cls-1" d="M1666.55,5.44c15.3,3.96,30.35,9.77,45.14,17.38,4.78,2.41,9.02,4.41,12.7,5.99,3.68,1.59,6.81,2.33,9.37,2.24,3.85-.13,6.75-2.48,8.73-7.03,1.99-4.55,3.45-11.75,4.4-21.62l14.73-.5c-1.1,30.82-.41,82.93,2.06,156.34l-14.72.5c-2.54-24.28-8.87-47.35-19-69.24-10.14-21.86-23.56-39.59-40.25-53.12-16.7-13.54-35.71-19.95-57.05-19.24-19.63.67-35.25,6.44-46.85,17.29-11.61,10.87-17.08,25.69-16.45,44.46.49,14.52,4.12,27.01,10.89,37.46,6.76,10.45,16.49,20.49,29.21,30.1,12.71,9.62,33.5,23.78,62.32,42.45,2.6,1.19,5.1,2.62,7.51,4.23,2.4,1.63,4.69,3.27,6.9,4.9,24.02,15.43,43.29,29.2,57.8,41.32,14.52,12.12,26.42,26.34,35.73,42.69,9.31,16.36,14.34,35.42,15.08,57.18.94,27.75-6.08,51.39-21.01,70.9-14.95,19.52-35.48,34.42-61.63,44.7-26.15,10.27-55.23,15.97-87.24,17.04-26.03.87-47.77-.54-65.2-4.21-17.43-3.68-33.74-8.9-48.92-15.66-9.59-5.66-16.95-8.4-22.07-8.23-3.85.13-6.76,2.48-8.75,7.03-1.99,4.55-3.44,11.76-4.4,21.62l-14.72.5c.72-29.08-.5-91.01-3.71-185.77l14.73-.49c4.69,50.69,16.76,91.52,36.18,122.48,19.42,30.97,48.12,45.81,86.11,44.52,23.47-.78,41.96-6.96,55.46-18.53,13.49-11.57,19.92-27.16,19.25-46.81-.82-24.33-9.1-44.87-24.83-61.66-15.75-16.77-39.97-35.28-72.71-55.55-26.19-16.2-47.18-30.46-62.98-42.74-15.8-12.29-28.89-26.69-39.27-43.22-10.4-16.53-15.95-35.89-16.71-58.09-.91-26.89,5.59-49.64,19.49-68.29,13.89-18.62,32.75-32.71,56.58-42.28,23.81-9.57,50.03-14.84,78.64-15.8,24.33-.82,44.14.76,59.44,4.73Z"/>
        <path class="cls-1" d="M2066.08,24.32c-13.7.49-23.66,1.92-29.92,4.31-6.26,2.4-10.55,7.19-12.89,14.39-2.35,7.21-3.72,18.92-4.17,35.14l-8.68,317.62c-.45,16.24.4,27.99,2.55,35.32,2.14,7.34,6.17,12.35,12.08,15.07,5.91,2.73,15.67,4.71,29.33,5.94l-.36,12.8c-24.72-1.95-60.36-3.57-106.89-4.85-51.65-1.41-89.66-1.81-114.04-1.19l.36-12.81c13.67-.47,23.65-1.91,29.91-4.31,6.26-2.39,10.55-7.18,12.9-14.39,2.32-7.19,3.72-18.9,4.15-35.12l8.69-317.63c.45-16.21-.41-27.98-2.55-35.32-2.15-7.31-6.18-12.34-12.09-15.07-5.91-2.72-15.68-4.69-29.32-5.92l.35-12.81c24.3,1.95,62.29,3.63,113.94,5.04,46.1,1.27,81.76,1.6,106.99,1.01l-.35,12.8Z"/>
        <path class="cls-1" d="M2350.16,46.22c-15.39-.55-26.71.1-33.97,2.01-7.25,1.9-12.48,6.35-15.71,13.34-3.22,7-5.57,18.58-7.07,34.74l-30.43,329.15c-1.1,11.91-1.06,20.71.13,26.39,1.18,5.68,3.82,9.68,7.9,11.99,4.07,2.3,11,3.91,20.79,4.81l21.04,1.95c14.89,1.37,31.73-4.57,50.55-17.84,18.81-13.27,36.37-31.48,52.65-54.64,16.3-23.16,27.99-47.69,35.12-73.63l14.67,1.36c-2.69,15.18-5.14,34.69-7.35,58.5-4.24,45.94-6.26,83.92-6.03,113.97-28.82-3.96-77.44-9.09-145.9-15.43-99.51-9.19-174.01-15.44-223.44-18.72l1.18-12.76c13.68.41,23.72-.38,30.14-2.36,6.39-1.99,10.99-6.49,13.79-13.53,2.8-7.03,4.94-18.62,6.44-34.79l29.25-316.39c1.5-16.16,1.4-27.96-.26-35.41-1.68-7.45-5.37-12.72-11.09-15.82-5.72-3.1-15.34-5.69-28.87-7.81l1.18-12.76c24.12,3.51,61.91,7.66,113.36,12.41,48.91,4.51,86.6,7.36,113.09,8.52l-1.18,12.76Z"/>
        <path class="cls-1" d="M2764.32,105.14c-13.63-1.4-23.7-1.35-30.23.17-6.53,1.5-11.45,5.67-14.73,12.48-3.31,6.82-6.28,18.22-8.95,34.23l-52.13,313.44c-2.67,16.02-3.44,27.79-2.31,35.34,1.12,7.55,4.42,13.07,9.9,16.58,5.48,3.5,14.89,6.81,28.24,9.89l-2.1,12.64c-24.24-5.33-59.31-11.81-105.22-19.45-50.99-8.48-88.57-14.08-112.8-16.81l2.1-12.64c13.62,1.41,23.69,1.35,30.23-.17,6.51-1.51,11.43-5.67,14.73-12.48,3.3-6.81,6.28-18.22,8.94-34.24l52.14-313.43c2.67-16.02,3.42-27.79,2.31-35.34-1.13-7.54-4.44-13.07-9.91-16.58s-14.89-6.8-28.23-9.89l2.1-12.64c23.8,5.26,61.2,12.13,112.17,20.61,45.5,7.57,80.78,12.79,105.85,15.66l-2.1,12.64Z"/>
        <path class="cls-1" d="M3235.63,221.74c-13.57-.5-24.24,1.41-32.02,5.75-7.78,4.35-14.35,12.43-19.7,24.26-5.37,11.82-11.34,30.14-17.91,54.9l-39.66,149.21c-15.8,59.43-35.89,100.94-60.27,124.51-16.08,15.61-36.27,25.48-60.57,29.62-24.31,4.15-53.59,1.67-87.84-7.44-49.95-13.27-86.11-33.5-108.49-60.66-16.39-19.81-24.75-42.81-25.08-68.98-.35-26.15,5.03-60.08,16.11-101.77l51.68-194.4c4.17-15.68,6.16-27.3,5.96-34.88-.21-7.57-2.98-13.38-8.3-17.44-5.32-4.08-14.49-8.27-27.47-12.61l3.3-12.39c23.2,7.49,59.35,17.76,108.46,30.83,48.71,12.94,85.8,22.15,111.31,27.6l-3.28,12.39c-15.08-3.13-26.35-4.36-33.82-3.69-7.48.67-13.38,4.18-17.72,10.54-4.35,6.36-8.59,17.38-12.76,33.06l-67.15,252.59c-10.54,39.63-11.73,69.04-3.57,88.22,8.16,19.18,25.65,32.34,52.48,39.47,39.22,10.43,70.77,3.9,94.69-19.57,23.9-23.48,42.68-60.8,56.28-111.98l38.18-143.64c8.12-30.53,12.72-52.85,13.81-66.93,1.09-14.05-1.78-25.33-8.59-33.77-6.81-8.44-19.74-16.74-38.78-24.89l3.28-12.39c16.59,5.75,39.54,12.5,68.85,20.29,21.88,5.82,39.16,9.76,51.89,11.81l-3.3,12.38Z"/>
        <path class="cls-1" d="M3533.08,333.45c11.91,10.39,22.79,22.3,32.61,35.71,3.21,4.28,6.1,7.98,8.69,11.03,2.59,3.06,5.05,5.13,7.39,6.19,3.49,1.6,7.13.81,10.95-2.39,3.81-3.18,8.34-8.96,13.59-17.38l13.4,6.13c-14.75,27.07-37.41,74.01-67.98,140.79l-13.4-6.13c8.58-22.84,13.22-46.32,13.93-70.42.69-24.11-3.4-45.95-12.29-65.52-8.9-19.57-23.04-33.8-42.46-42.69-17.86-8.17-34.42-9.99-49.64-5.45-15.23,4.54-26.75,15.35-34.57,32.43-6.04,13.21-8.37,25.99-6.99,38.37,1.37,12.38,5.6,25.7,12.7,39.97,7.08,14.29,19.35,36.23,36.8,65.82,1.8,2.23,3.4,4.62,4.83,7.14,1.41,2.53,2.73,5.01,3.98,7.45,14.59,24.54,25.69,45.47,33.27,62.79,7.57,17.33,11.86,35.38,12.89,54.17s-2.99,38.09-12.05,57.89c-11.55,25.25-28.38,43.27-50.45,54.05-22.1,10.78-47.13,14.95-75.11,12.46-27.99-2.49-56.54-10.37-85.66-23.71-23.7-10.85-42.51-21.81-56.46-32.89-13.95-11.07-26.21-23.03-36.78-35.86-6.05-9.35-11.41-15.08-16.07-17.22-3.5-1.6-7.16-.81-10.95,2.39-3.82,3.18-8.35,8.99-13.59,17.38l-13.4-6.13c13.63-25.7,40.19-81.65,79.66-167.85l13.39,6.13c-18.44,47.46-25.88,89.37-22.33,125.75,3.53,36.38,22.58,62.48,57.16,78.3,21.35,9.77,40.65,12.52,57.9,8.18,17.24-4.31,29.94-15.4,38.13-33.27,10.13-22.13,11.9-44.23,5.32-66.26-6.59-22.04-20.01-49.42-40.24-82.18-16.18-26.2-28.6-48.32-37.25-66.38-8.64-18.04-13.93-36.78-15.82-56.21-1.92-19.43,1.74-39.24,10.99-59.44,11.21-24.47,27.17-41.92,47.94-52.39,20.75-10.45,43.93-14.64,69.52-12.57,25.57,2.09,51.39,9.08,77.4,20.99,22.13,10.13,39.15,20.39,51.08,30.78Z"/>
      </g>
      <g>
        <path class="cls-1" d="M261.37,865.41h78.33c31.66,0,55.67,23.47,55.67,54.58s-24.01,54.04-55.4,54.04h-1.91l33.57,48.31c7.37,10.64,16.11,15.56,25.93,15.56h5.18v15.82h-7.09c-16.38,0-29.48-7.36-39.57-23.2l-38.2-56.49h-39.86v79.69h-16.65v-188.31ZM278.02,881.25v78.05h61.41c21.83,0,38.47-16.65,38.47-39.02s-16.65-39.02-38.47-39.02h-61.41Z"/>
        <path class="cls-1" d="M433.61,865.41h118.44v15.84h-101.8v69.86h92.79v15.82h-92.79v70.95h103.16v15.82h-119.8v-188.31Z"/>
        <path class="cls-1" d="M591.37,865.41h79.15c32.75,0,57.58,24.57,57.58,56.77s-24.83,57.03-57.58,57.03h-62.5v74.51h-16.65v-188.31ZM608.02,881.25v82.14h62.23c22.92,0,40.38-17.74,40.38-41.2s-17.47-40.93-40.38-40.93h-62.23Z"/>
        <path class="cls-1" d="M751.32,959.56c0-55.4,42.31-97.42,97.97-97.42s98.24,42.02,98.24,97.42-42.29,97.44-98.24,97.44-97.97-42.04-97.97-97.44ZM930.07,959.56c0-46.4-34.65-81.05-80.78-81.05s-80.78,34.65-80.78,81.05,34.93,81.06,80.78,81.06,80.78-34.66,80.78-81.06Z"/>
        <path class="cls-1" d="M974.32,1002.14h17.2c0,22.38,21.02,39.57,48.31,39.57s46.67-14.73,46.67-36.84c0-50.49-108.62-26.75-108.62-91.15,0-31.66,27.57-51.58,60.86-51.58,35.2,0,61.67,22.65,61.67,52.67h-17.18c0-21.29-19.38-37.38-44.76-37.38-23.48,0-43.13,13.64-43.13,34.93,0,49.94,108.62,25.65,108.62,90.6,0,33.02-28.65,54.04-64.13,54.04-37.39,0-65.5-23.75-65.5-54.86Z"/>
        <path class="cls-1" d="M1176.84,881.25h-60.04v-15.84h137v15.84h-60.03v172.47h-16.93v-172.47Z"/>
        <path class="cls-1" d="M1286.85,865.41h118.45v15.84h-101.81v69.86h92.79v15.82h-92.79v70.95h103.17v15.82h-119.81v-188.31Z"/>
        <path class="cls-1" d="M1444.62,865.41h78.33c31.65,0,55.67,23.47,55.67,54.58s-24.02,54.04-55.4,54.04h-1.91l33.57,48.31c7.36,10.64,16.09,15.56,25.92,15.56h5.19v15.82h-7.1c-16.36,0-29.47-7.36-39.56-23.2l-38.22-56.49h-39.84v79.69h-16.65v-188.31ZM1461.26,881.25v78.05h61.4c21.84,0,38.48-16.65,38.48-39.02s-16.65-39.02-38.48-39.02h-61.4Z"/>
        <path class="cls-1" d="M1643.59,812.19h21.01l-32.74,33.3h-17.2l28.93-33.3ZM1616.84,865.41h16.65v188.31h-16.65v-188.31Z"/>
        <path class="cls-1" d="M1741.85,865.41h20.18l79.42,188.31h-18.83l-21.56-51.58h-98.8l-21.56,51.58h-18.29l79.42-188.31ZM1794.52,986.58l-42.84-102.89-42.84,102.89h85.69Z"/>
        <path class="cls-1" d="M1941.38,865.41h81.06c27.01,0,47.2,19.93,47.2,46.67,0,19.11-11.18,35.21-25.65,41.75,22.65,4.64,38.2,24.57,38.2,49.13,0,29.2-21.83,50.76-51.31,50.76h-89.51v-188.31ZM1957.75,880.7v67.95h61.13c18.29,0,33.57-14.73,33.57-34.11s-14.47-33.84-33.57-33.84h-61.13ZM1957.75,963.12v75.33h69.86c21.29,0,37.11-16.38,37.11-37.95s-15.82-37.38-37.11-37.38h-69.86Z"/>
        <path class="cls-1" d="M2115.79,865.41h78.33c31.65,0,55.67,23.47,55.67,54.58s-24.02,54.04-55.4,54.04h-1.91l33.57,48.31c7.36,10.64,16.09,15.56,25.92,15.56h5.19v15.82h-7.1c-16.36,0-29.47-7.36-39.56-23.2l-38.22-56.49h-39.84v79.69h-16.65v-188.31ZM2132.44,881.25v78.05h61.4c21.84,0,38.48-16.65,38.48-39.02s-16.65-39.02-38.48-39.02h-61.4Z"/>
        <path class="cls-1" d="M2348.07,865.41h20.18l79.42,188.31h-18.83l-21.56-51.58h-98.8l-21.56,51.58h-18.29l79.42-188.31ZM2400.74,986.58l-42.84-102.89-42.84,102.89h85.69Z"/>
        <path class="cls-1" d="M2462.99,1002.14h17.2c0,22.38,21.02,39.57,48.31,39.57s46.67-14.73,46.67-36.84c0-50.49-108.62-26.75-108.62-91.15,0-31.66,27.56-51.58,60.86-51.58,35.2,0,61.67,22.65,61.67,52.67h-17.2c0-21.29-19.38-37.38-44.76-37.38-23.47,0-43.11,13.64-43.11,34.93,0,49.94,108.62,25.65,108.62,90.6,0,33.02-28.66,54.04-64.13,54.04-37.39,0-65.5-23.75-65.5-54.86Z"/>
        <path class="cls-1" d="M2629.76,865.41h16.65v188.31h-16.65v-188.31Z"/>
        <path class="cls-1" d="M2695,865.41h16.65v172.48h94.97v15.82h-111.62v-188.31Z"/>
        <path class="cls-1" d="M2840.2,865.41h118.44v15.84h-101.8v69.86h92.79v15.82h-92.79v70.95h103.16v15.82h-119.8v-188.31Z"/>
        <path class="cls-1" d="M2997.96,865.41h18.02l119.53,161.29v-161.29h16.91v188.31h-18.29l-119.53-161.29v161.29h-16.65v-188.31ZM3058,826.39c-8.73,0-15.29,6.82-15.29,15.56h-11.73c0-16.11,9.82-28.38,25.38-28.38,17.47,0,22.66,16.91,36.3,16.91,8.73,0,15.27-6.55,15.27-15.56h12.02c0,16.38-10.11,28.38-25.66,28.38-17.18,0-22.38-16.91-36.29-16.91Z"/>
        <path class="cls-1" d="M3260.54,865.41h20.18l79.42,188.31h-18.83l-21.56-51.58h-98.8l-21.56,51.58h-18.29l79.42-188.31ZM3313.21,986.58l-42.84-102.89-42.84,102.89h85.69Z"/>
      </g>
    </g>
  </g>
</svg>