<?xml version="1.0" encoding="UTF-8"?>
<svg id="Capa_2" data-name="Capa 2" xmlns="http://www.w3.org/2000/svg" viewBox="0 0 149.81 88.2">
  <defs>
    <style>
      .cls-1 {
        fill: #85bacc;
      }
    </style>
  </defs>
  <g id="Capa_1-2" data-name="Capa 1">
    <path class="cls-1" d="M149.81,58.24h-10.65V22.02c0-12.14-9.88-22.02-22.02-22.02H32.68C20.53,0,10.65,9.88,10.65,22.02v36.22H0v4h50.57c-.57,3.92-2.79,13.06-11.32,22.63l-2.97,3.33h79.61l-5.77-3.69c-.1-.06-9.31-6.14-10.88-22.27h50.56v-4ZM14.65,40.86h8.9c.76,0,1.37.62,1.37,1.37,0,4.14,3.37,7.5,7.5,7.5h3.95c4.14,0,7.5-3.37,7.5-7.5,0-.92.75-1.67,1.67-1.67h4.29c.76,0,1.37.62,1.37,1.37v.3c0,4.14,3.37,7.5,7.5,7.5h1.13c4.14,0,7.5-3.37,7.5-7.5,0-.92.75-1.67,1.67-1.67h3.47c.76,0,1.37.62,1.37,1.37v.3c0,4.14,3.37,7.5,7.5,7.5s7.5-3.37,7.5-7.5c0-.92.75-1.67,1.67-1.67h3.38c.76,0,1.37.62,1.37,1.37v.3c0,4.14,3.37,7.5,7.5,7.5h6.18c4.14,0,7.5-3.37,7.5-7.5v-.3c0-.76.62-1.37,1.37-1.37h3.38c.92,0,1.67.75,1.67,1.67,0,4.14,3.37,7.5,7.5,7.5,1.58,0,3.26-.51,4.73-1.38v7.92H14.65v-15.42ZM32.68,4h84.46c9.94,0,18.02,8.08,18.02,18.02v20.21c0,1.77-2.71,3.5-4.73,3.5s-3.5-1.57-3.5-3.5c0-3.13-2.55-5.67-5.67-5.67h-3.38c-2.96,0-5.37,2.41-5.37,5.37v.3c0,1.93-1.57,3.5-3.5,3.5h-6.18c-1.93,0-3.5-1.57-3.5-3.5v-.3c0-2.96-2.41-5.37-5.37-5.37h-3.38c-3.13,0-5.67,2.55-5.67,5.67,0,1.93-1.57,3.5-3.5,3.5s-3.5-1.57-3.5-3.5v-.3c0-2.96-2.41-5.37-5.37-5.37h-3.47c-3.13,0-5.67,2.55-5.67,5.67,0,1.93-1.57,3.5-3.5,3.5h-1.13c-1.93,0-3.5-1.57-3.5-3.5v-.3c0-2.96-2.41-5.37-5.37-5.37h-4.29c-3.13,0-5.67,2.55-5.67,5.67,0,1.93-1.57,3.5-3.5,3.5h-3.95c-1.93,0-3.5-1.57-3.5-3.5,0-2.96-2.41-5.37-5.37-5.37h-8.9v-14.83c0-9.94,8.08-18.02,18.02-18.02ZM103.93,84.2h-58.92c7.33-9.55,9.16-18.18,9.62-21.96h40.6c1,11.18,5.35,18.15,8.7,21.96Z"/>
  </g>
</svg>