<?xml version="1.0" encoding="UTF-8"?>
<svg id="Capa_2" data-name="Capa 2" xmlns="http://www.w3.org/2000/svg" viewBox="0 0 115.34 71.37">
  <defs>
    <style>
      .cls-1 {
        fill: #85bacc;
      }
    </style>
  </defs>
  <g id="Capa_1-2" data-name="Capa 1">
    <path class="cls-1" d="M115.34,41.41h-7.74v-19.39c0-12.14-9.88-22.02-22.02-22.02H29.76C17.62,0,7.74,9.88,7.74,22.02v19.39H0v4h38.49c-.43,3.94-2.12,13.14-8.76,22.83l-2.15,3.13h61.81s-4.14-3.53-4.14-3.53c-.07-.06-7.17-6.3-8.38-22.43h38.47v-4ZM11.74,24.02h8.9c.76,0,1.37.62,1.37,1.37,0,4.14,3.37,7.5,7.5,7.5h3.95c4.14,0,7.5-3.37,7.5-7.5,0-.92.75-1.67,1.67-1.67h4.29c.76,0,1.37.62,1.37,1.37v.3c0,4.14,3.37,7.5,7.5,7.5h1.13c4.14,0,7.5-3.37,7.5-7.5,0-.92.75-1.67,1.67-1.67h3.47c.76,0,1.37.62,1.37,1.37v.3c0,4.14,3.37,7.5,7.5,7.5s7.5-3.37,7.5-7.5c0-.92.75-1.67,1.67-1.67h3.38c.76,0,1.37.62,1.37,1.37v.3c0,4.14,3.37,7.5,7.5,7.5h3.7v6.54H11.74v-15.42ZM29.76,4h55.81c9.94,0,18.02,8.08,18.02,18.02v6.88h-3.7c-1.93,0-3.5-1.57-3.5-3.5v-.3c0-2.96-2.41-5.37-5.37-5.37h-3.38c-3.13,0-5.67,2.55-5.67,5.67,0,1.93-1.57,3.5-3.5,3.5s-3.5-1.57-3.5-3.5v-.3c0-2.96-2.41-5.37-5.37-5.37h-3.47c-3.13,0-5.67,2.55-5.67,5.67,0,1.93-1.57,3.5-3.5,3.5h-1.13c-1.93,0-3.5-1.57-3.5-3.5v-.3c0-2.96-2.41-5.37-5.37-5.37h-4.29c-3.13,0-5.67,2.55-5.67,5.67,0,1.93-1.57,3.5-3.5,3.5h-3.95c-1.93,0-3.5-1.57-3.5-3.5,0-2.96-2.41-5.37-5.37-5.37h-8.78c1-9,8.64-16.02,17.9-16.02ZM79.66,67.37h-44.63c5.7-9.56,7.13-18.18,7.48-21.96h30.34c.78,11.23,4.21,18.2,6.8,21.96Z"/>
  </g>
</svg>